<?xml version="1.0" encoding="UTF-8" standalone="no"?>
<svg
   xmlns:dc="http://purl.org/dc/elements/1.1/"
   xmlns:cc="http://creativecommons.org/ns#"
   xmlns:rdf="http://www.w3.org/1999/02/22-rdf-syntax-ns#"
   xmlns:svg="http://www.w3.org/2000/svg"
   xmlns="http://www.w3.org/2000/svg"
   xmlns:xlink="http://www.w3.org/1999/xlink"
   xmlns:sodipodi="http://sodipodi.sourceforge.net/DTD/sodipodi-0.dtd"
   xmlns:inkscape="http://www.inkscape.org/namespaces/inkscape"
   width="33.266956mm"
   height="32.47488mm"
   viewBox="0 0 33.266956 32.474879"
   version="1.1"
   id="svg8"
   inkscape:version="1.0.1 (c497b03c, 2020-09-10)"
   sodipodi:docname="templatedoctor.svg">
  <defs
     id="defs2">
    <linearGradient
       inkscape:collect="always"
       xlink:href="#linearGradient968"
       id="linearGradient970"
       x1="5.5444927"
       y1="24.158144"
       x2="31.111401"
       y2="24.158144"
       gradientUnits="userSpaceOnUse"
       gradientTransform="translate(1.184082e-6)" />
    <linearGradient
       inkscape:collect="always"
       id="linearGradient968">
      <stop
         style="stop-color:#b0b1ff;stop-opacity:1;"
         offset="0"
         id="stop964" />
      <stop
         style="stop-color:#b0b1ff;stop-opacity:0;"
         offset="1"
         id="stop966" />
    </linearGradient>
    <linearGradient
       inkscape:collect="always"
       xlink:href="#linearGradient968"
       id="linearGradient1025"
       x1="-50.167526"
       y1="-14.833541"
       x2="18.631245"
       y2="-1.1877922"
       gradientUnits="userSpaceOnUse" />
    <linearGradient
       inkscape:collect="always"
       xlink:href="#linearGradient968"
       id="linearGradient1033"
       x1="17.15274"
       y1="13.8702"
       x2="21.954636"
       y2="13.357246"
       gradientUnits="userSpaceOnUse"
       gradientTransform="matrix(0.97836118,0,0,0.97836118,0.48342174,0.28939448)" />
  </defs>
  <sodipodi:namedview
     id="base"
     pagecolor="#ffffff"
     bordercolor="#666666"
     borderopacity="1.0"
     inkscape:pageopacity="0.0"
     inkscape:pageshadow="2"
     inkscape:zoom="1.9758602"
     inkscape:cx="33.462171"
     inkscape:cy="21.238691"
     inkscape:document-units="mm"
     inkscape:current-layer="layer2"
     inkscape:document-rotation="0"
     showgrid="false"
     inkscape:snap-intersection-paths="true"
     inkscape:window-width="1155"
     inkscape:window-height="625"
     inkscape:window-x="153"
     inkscape:window-y="32"
     inkscape:window-maximized="0"
     fit-margin-top="0"
     fit-margin-left="0"
     fit-margin-right="0"
     fit-margin-bottom="0" />
  <metadata
     id="metadata5">
    <rdf:RDF>
      <cc:Work
         rdf:about="">
        <dc:format>image/svg+xml</dc:format>
        <dc:type
           rdf:resource="http://purl.org/dc/dcmitype/StillImage" />
        <dc:title></dc:title>
      </cc:Work>
    </rdf:RDF>
  </metadata>
  <g
     inkscape:label="Layer 1"
     inkscape:groupmode="layer"
     id="layer1"
     transform="translate(-5.5444927,-7.9207029)">
    <rect
       style="opacity:0.99;mix-blend-mode:multiply;fill:#ff00ff;fill-opacity:1;stroke-width:0.384225;stroke-linecap:round;stroke-linejoin:round"
       id="rect833"
       width="33.266956"
       height="32.47488"
       x="5.5444927"
       y="7.9207034"
       rx="3.9386668"
       ry="4.91223" />
  </g>
  <g
     inkscape:groupmode="layer"
     id="layer3"
     inkscape:label="Layer 3"
     transform="translate(-5.5444927,-7.9207029)">
    <rect
       style="opacity:0.99;mix-blend-mode:normal;fill:url(#linearGradient970);fill-opacity:1;stroke-width:0.384225;stroke-linecap:round;stroke-linejoin:round"
       id="rect954"
       width="33.266956"
       height="32.47488"
       x="5.5444927"
       y="7.9207029"
       rx="3.9386668"
       ry="4.91223" />
  </g>
  <g
     inkscape:groupmode="layer"
     id="layer2"
     inkscape:label="Layer 2"
     transform="translate(-5.5444927,-7.9207029)">
    <path
       id="path854"
       style="color:#000000;font-style:normal;font-variant:normal;font-weight:normal;font-stretch:normal;font-size:medium;line-height:normal;font-family:sans-serif;font-variant-ligatures:normal;font-variant-position:normal;font-variant-caps:normal;font-variant-numeric:normal;font-variant-alternates:normal;font-variant-east-asian:normal;font-feature-settings:normal;font-variation-settings:normal;text-indent:0;text-align:start;text-decoration:none;text-decoration-line:none;text-decoration-style:solid;text-decoration-color:#000000;letter-spacing:normal;word-spacing:normal;text-transform:none;writing-mode:lr-tb;direction:ltr;text-orientation:mixed;dominant-baseline:auto;baseline-shift:baseline;text-anchor:start;white-space:normal;shape-padding:0;shape-margin:0;inline-size:0;clip-rule:nonzero;display:inline;overflow:visible;visibility:visible;isolation:auto;mix-blend-mode:normal;color-interpolation:sRGB;color-interpolation-filters:linearRGB;solid-color:#000000;solid-opacity:1;vector-effect:none;fill:#ffffff;fill-opacity:1;fill-rule:nonzero;stroke:none;stroke-width:1.03705;stroke-linecap:butt;stroke-linejoin:miter;stroke-miterlimit:4;stroke-dasharray:none;stroke-dashoffset:0;stroke-opacity:1;color-rendering:auto;image-rendering:auto;shape-rendering:auto;text-rendering:auto;enable-background:accumulate;stop-color:#000000"
       d="m 17.264997,14.388627 -0.229278,0.479577 c 0,0 0.792955,0.698526 1.463828,1.06602 0.335436,0.183747 0.650945,0.428083 0.862996,0.720833 0.212051,0.292749 0.3344,0.621856 0.312642,1.089865 -0.02175,0.467949 -0.158656,0.722806 -0.410311,0.987604 -0.251655,0.264798 -0.639509,0.509602 -1.089855,0.785303 -0.900691,0.551399 -2.066416,1.294042 -2.562117,2.96003 -0.480292,1.614203 -0.60309,4.025118 -0.630969,6.079012 -0.02788,2.053895 0.05633,3.734774 0.05633,3.734774 v 0.02501 l 0.0041,0.02501 c 0,0 0.170429,1.253515 0.734322,2.514304 0.281946,0.630396 0.663664,1.274718 1.205094,1.772907 0.541431,0.498189 1.260887,0.837545 2.107365,0.802531 1.42186,-0.05882 2.234765,-0.02873 2.672187,0.01278 0.21871,0.02076 0.34359,0.04508 0.402042,0.05891 0.05845,0.01383 -0.0036,-0.0083 -0.0036,-0.0083 v 0 l 0.451135,-0.02112 c 0,0 -0.06273,0.02551 -0.0098,0.01223 0.05291,-0.01328 0.169877,-0.03607 0.374654,-0.05669 0.409555,-0.04123 1.172995,-0.07321 2.51199,-0.01445 0.809075,0.03551 1.496495,-0.309678 2.00763,-0.808646 0.51113,-0.498969 0.868018,-1.141054 1.132747,-1.769014 0.529452,-1.255923 0.68988,-2.501522 0.68988,-2.501522 l 0.0036,-0.02334 v -0.02279 c 0,0 0.07897,-1.678685 0.05271,-3.730885 -0.02626,-2.052199 -0.141552,-4.463384 -0.591696,-6.068452 -0.463645,-1.653203 -1.565218,-2.401869 -2.414321,-2.953361 -0.424552,-0.275746 -0.788017,-0.516567 -1.02526,-0.781413 -0.237245,-0.264847 -0.371253,-0.529577 -0.392225,-1.008167 -0.02008,-0.458154 0.115075,-0.781254 0.357084,-1.079305 0.242008,-0.29805 0.604231,-0.549615 0.986503,-0.737507 0.764544,-0.375784 1.350837,-1.062161 1.350837,-1.062161 l 0.08835,-0.465095 c 0,0 -0.916882,0.122401 -1.843815,0.578001 -0.463467,0.227801 -0.939286,0.540728 -1.312064,0.99983 -0.372778,0.459104 -0.629865,1.087275 -0.597896,1.816813 0.03107,0.7091 0.299511,1.275373 0.664041,1.682315 0.364531,0.406941 0.801478,0.677917 1.222664,0.951478 0.842375,0.547123 1.617359,1.04544 1.986442,2.361467 0.382582,1.364162 0.525082,3.764919 0.550871,5.780565 0.02555,1.997144 -0.04977,3.597653 -0.05116,3.627508 -0.0017,0.01284 -0.150426,1.122336 -0.607198,2.205853 -0.229706,0.544885 -0.535135,1.067708 -0.90227,1.426107 -0.367134,0.358396 -0.772093,0.563528 -1.316199,0.539651 -1.367367,-0.06001 -2.167513,-0.03061 -2.642731,0.01723 -0.219532,0.0221 -0.36469,0.04783 -0.47284,0.07336 -0.01189,-0.0033 -0.02106,-0.0077 -0.03307,-0.01056 -0.114099,-0.027 -0.278534,-0.05625 -0.529166,-0.08003 -0.501264,-0.04757 -1.347832,-0.07663 -2.797244,-0.01667 -0.589149,0.02433 -1.029189,-0.184957 -1.419542,-0.544133 -0.390352,-0.359179 -0.712883,-0.879765 -0.955497,-1.422216 -0.481049,-1.075564 -0.637508,-2.169553 -0.64027,-2.188624 -0.0014,-0.028 -0.08188,-1.630897 -0.05478,-3.627508 0.02734,-2.013952 0.180767,-4.413311 0.583943,-5.768338 0.387769,-1.303242 1.209892,-1.807582 2.103747,-2.354798 0.446927,-0.273606 0.907704,-0.542265 1.294494,-0.949255 0.386789,-0.406989 0.677607,-0.981469 0.711068,-1.701212 0.03346,-0.719682 -0.189163,-1.342403 -0.525549,-1.806808 -0.336386,-0.464403 -0.7734,-0.784558 -1.196824,-1.016503 -0.846848,-0.46389 -1.687752,-0.588005 -1.687752,-0.588005 z"
       sodipodi:nodetypes="ccssssssscccssssscccscssscccsssssssccssssssscssssccccsscssssssscc" />
    <rect
       style="opacity:0.99;fill:url(#linearGradient1033);fill-opacity:1;stroke:#ffffff;stroke-width:0.995277;stroke-linecap:round;stroke-linejoin:round;stroke-miterlimit:4;stroke-dasharray:none;stroke-opacity:1"
       id="rect861"
       width="10.609523"
       height="2.9886971"
       x="17.035719"
       y="11.879506"
       rx="1.0182151"
       ry="1.5058126" />
    <path
       sodipodi:type="star"
       style="opacity:0.99;fill:url(#linearGradient1025);fill-opacity:1;stroke:#ffffff;stroke-width:1.18584;stroke-linecap:round;stroke-linejoin:round;stroke-miterlimit:4;stroke-dasharray:none;stroke-opacity:1"
       id="path873"
       sodipodi:sides="4"
       sodipodi:cx="14.687668"
       sodipodi:cy="-1.7669376"
       sodipodi:r1="8.6406794"
       sodipodi:r2="3.9747126"
       sodipodi:arg1="0.89405938"
       sodipodi:arg2="1.6794575"
       inkscape:flatsided="false"
       inkscape:rounded="0.25"
       inkscape:randomized="0"
       d="M 20.098914,4.9695119 C 18.837446,5.9828227 15.865132,2.3598069 14.25662,2.1843329 12.648108,2.0088588 8.9645291,4.9057772 7.9512183,3.6443087 6.9379075,2.3828403 10.560923,-0.58947335 10.736397,-2.1979851 10.911871,-3.806497 8.014953,-7.4900763 9.2764215,-8.5033872 c 1.2614685,-1.0133107 4.2337825,2.6097051 5.8422935,2.7851791 1.608512,0.175474 5.292092,-2.7214443 6.305402,-1.4599759 1.013311,1.2614684 -2.609705,4.2337821 -2.785179,5.8422939 -0.175474,1.60851186 2.721445,5.2920912 1.459976,6.305402 z"
       inkscape:transform-center-x="-0.1781463"
       inkscape:transform-center-y="-0.34351411"
       transform="matrix(0.40903988,0.34353651,-0.32942871,0.42655702,15.633925,23.561728)" />
    <path
       sodipodi:type="star"
       style="opacity:0.99;fill:#bc97ff;fill-opacity:1;stroke:#ffffff;stroke-width:1.27232;stroke-linecap:round;stroke-linejoin:round;stroke-miterlimit:4;stroke-dasharray:none;stroke-opacity:1"
       id="path875"
       sodipodi:sides="4"
       sodipodi:cx="14.687668"
       sodipodi:cy="-1.7669376"
       sodipodi:r1="8.6406794"
       sodipodi:r2="3.9747126"
       sodipodi:arg1="0.89405938"
       sodipodi:arg2="1.6794575"
       inkscape:flatsided="false"
       inkscape:rounded="0.25"
       inkscape:randomized="0"
       d="M 20.098914,4.9695119 C 18.837446,5.9828227 15.865132,2.3598069 14.25662,2.1843329 12.648108,2.0088588 8.9645291,4.9057772 7.9512183,3.6443087 6.9379075,2.3828403 10.560923,-0.58947335 10.736397,-2.1979851 10.911871,-3.806497 8.014953,-7.4900763 9.2764215,-8.5033872 c 1.2614685,-1.0133107 4.2337825,2.6097051 5.8422935,2.7851791 1.608512,0.175474 5.292092,-2.7214443 6.305402,-1.4599759 1.013311,1.2614684 -2.609705,4.2337821 -2.785179,5.8422939 -0.175474,1.60851186 2.721445,5.2920912 1.459976,6.305402 z"
       inkscape:transform-center-x="-0.12233266"
       inkscape:transform-center-y="-0.23228792"
       transform="matrix(0.2808859,0.23230354,-0.22621726,0.28844301,11.348542,19.959822)" />
    <path
       sodipodi:type="star"
       style="opacity:0.99;fill:#ff00ff;fill-opacity:1;stroke:#ffffff;stroke-width:1.72223;stroke-linecap:round;stroke-linejoin:round;stroke-miterlimit:4;stroke-dasharray:none;stroke-opacity:1"
       id="path877"
       sodipodi:sides="4"
       sodipodi:cx="14.687668"
       sodipodi:cy="-1.7669376"
       sodipodi:r1="8.6406794"
       sodipodi:r2="3.9747126"
       sodipodi:arg1="0.89405938"
       sodipodi:arg2="1.6794575"
       inkscape:flatsided="false"
       inkscape:rounded="0.25"
       inkscape:randomized="0"
       d="M 20.098914,4.9695119 C 18.837446,5.9828227 15.865132,2.3598069 14.25662,2.1843329 12.648108,2.0088588 8.9645291,4.9057772 7.9512183,3.6443087 6.9379075,2.3828403 10.560923,-0.58947335 10.736397,-2.1979851 10.911871,-3.806497 8.014953,-7.4900763 9.2764215,-8.5033872 c 1.2614685,-1.0133107 4.2337825,2.6097051 5.8422935,2.7851791 1.608512,0.175474 5.292092,-2.7214443 6.305402,-1.4599759 1.013311,1.2614684 -2.609705,4.2337821 -2.785179,5.8422939 -0.175474,1.60851186 2.721445,5.2920912 1.459976,6.305402 z"
       inkscape:transform-center-x="-0.089351933"
       inkscape:transform-center-y="-0.18341251"
       transform="matrix(0.20515878,0.18342446,-0.16522886,0.2277516,27.918831,13.55797)" />
  </g>
</svg>
